<?xml version="1.0" encoding="UTF-8" standalone="no"?>
<svg
   xmlns:dc="http://purl.org/dc/elements/1.1/"
   xmlns:cc="http://creativecommons.org/ns#"
   xmlns:rdf="http://www.w3.org/1999/02/22-rdf-syntax-ns#"
   xmlns:svg="http://www.w3.org/2000/svg"
   xmlns="http://www.w3.org/2000/svg"
   xmlns:xlink="http://www.w3.org/1999/xlink"
   xmlns:sodipodi="http://sodipodi.sourceforge.net/DTD/sodipodi-0.dtd"
   xmlns:inkscape="http://www.inkscape.org/namespaces/inkscape"
   width="480"
   height="64"
   viewBox="0 0 126.97135 16.929513"
   version="1.1"
   id="svg10"
   sodipodi:docname="rebornos_logo_with_text_on_side.svg"
   inkscape:version="1.0.2 (e86c870879, 2021-01-15)"
   inkscape:export-filename="/run/media/shivanandvp/DATA/Development/RebornOS/rebornos-calamares-installer/src/branding/default/rebornos_logo_with_text_on_side.png"
   inkscape:export-xdpi="96"
   inkscape:export-ydpi="96">
  <metadata
     id="metadata16">
    <rdf:RDF>
      <cc:Work
         rdf:about="">
        <dc:format>image/svg+xml</dc:format>
        <dc:type
           rdf:resource="http://purl.org/dc/dcmitype/StillImage" />
        <dc:title></dc:title>
      </cc:Work>
    </rdf:RDF>
  </metadata>
  <defs
     id="defs14">
    <path
       id="B"
       d="m 209.906,167.736 h -7.018 v -25.13 q 0,-0.736 -0.294,-1.374 -0.27,-0.638 -0.76,-1.104 -0.466,-0.49 -1.104,-0.76 -0.638,-0.27 -1.374,-0.27 -0.736,0 -1.374,0.27 -0.638,0.27 -1.13,0.76 -0.466,0.466 -0.736,1.104 -0.27,0.638 -0.27,1.374 v 25.13 h -7.043 v -25.13 q 0,-0.736 -0.27,-1.374 -0.27,-0.638 -0.76,-1.104 -0.466,-0.49 -1.104,-0.76 -0.638,-0.27 -1.374,-0.27 -0.736,0 -1.374,0.27 -0.638,0.27 -1.13,0.76 -0.466,0.466 -0.736,1.104 -0.27,0.638 -0.27,1.374 v 25.13 h -7.043 v -25.13 q 0,-2.184 0.8,-4.098 0.834,-1.94 2.258,-3.362 1.448,-1.448 3.362,-2.258 1.94,-0.834 4.123,-0.834 1.963,0 3.78,0.712 1.816,0.687 3.264,2.012 1.448,-1.325 3.24,-2.012 1.816,-0.712 3.78,-0.712 2.184,0 4.098,0.834 1.94,0.8 3.362,2.258 1.448,1.423 2.258,3.362 0.834,1.914 0.834,4.098 z" />
    <path
       id="C"
       d="m 237.556,167.736 h -1.62 l -2.6,-3.607 q -0.957,0.86 -2.037,1.62 -1.055,0.736 -2.233,1.3 -1.178,0.54 -2.43,0.86 -1.227,0.32 -2.503,0.32 -2.773,0 -5.227,-0.933 -2.43,-0.933 -4.27,-2.7 -1.816,-1.79 -2.87,-4.368 -1.055,-2.577 -1.055,-5.865 0,-3.068 1.055,-5.62 1.055,-2.577 2.87,-4.417 1.84,-1.84 4.27,-2.847 2.454,-1.03 5.227,-1.03 1.276,0 2.528,0.32 1.252,0.32 2.43,0.883 1.178,0.564 2.233,1.325 1.08,0.76 2.012,1.644 l 2.6,-3.117 h 1.62 z m -6.75,-13.374 q 0,-1.374 -0.54,-2.65 -0.515,-1.3 -1.423,-2.282 -0.908,-1.006 -2.135,-1.595 -1.202,-0.614 -2.577,-0.614 -1.374,0 -2.6,0.466 -1.202,0.466 -2.1,1.374 -0.883,0.908 -1.4,2.258 -0.515,1.325 -0.515,3.043 0,1.718 0.515,3.068 0.515,1.325 1.4,2.233 0.908,0.908 2.1,1.374 1.227,0.466 2.6,0.466 1.374,0 2.577,-0.59 1.227,-0.614 2.135,-1.595 0.908,-1.006 1.423,-2.282 0.54,-1.3 0.54,-2.675 z" />
    <path
       id="D"
       d="m 264.936,167.736 h -1.62 l -2.6,-3.607 q -0.957,0.86 -2.037,1.62 -1.055,0.736 -2.233,1.3 -1.178,0.54 -2.43,0.86 -1.227,0.32 -2.503,0.32 -2.773,0 -5.227,-1.03 -2.43,-1.055 -4.27,-2.896 -1.816,-1.865 -2.87,-4.393 -1.055,-2.552 -1.055,-5.546 0,-2.97 1.055,-5.522 1.055,-2.552 2.87,-4.417 1.84,-1.865 4.27,-2.92 2.454,-1.055 5.227,-1.055 0.883,0 1.816,0.147 0.957,0.147 1.84,0.49 0.908,0.32 1.693,0.86 0.785,0.54 1.325,1.325 V 131 h 6.75 z m -6.75,-13.374 q 0,-1.374 -0.54,-2.65 -0.515,-1.3 -1.423,-2.282 -0.908,-1.006 -2.135,-1.595 -1.202,-0.614 -2.577,-0.614 -1.374,0 -2.6,0.49 -1.202,0.49 -2.1,1.423 -0.883,0.908 -1.4,2.233 -0.515,1.325 -0.515,2.994 0,1.448 0.515,2.748 0.515,1.3 1.4,2.282 0.908,0.982 2.1,1.546 1.227,0.564 2.6,0.564 1.374,0 2.577,-0.59 1.227,-0.614 2.135,-1.595 0.908,-1.006 1.423,-2.282 0.54,-1.3 0.54,-2.675 z" />
    <path
       id="E"
       d="m 277.37,161.306 q 0.393,0.123 0.785,0.172 0.393,0.025 0.785,0.025 0.982,0 1.9,-0.27 0.908,-0.27 1.693,-0.76 0.8,-0.515 1.423,-1.227 0.638,-0.736 1.03,-1.62 l 4.908,4.933 q -0.933,1.325 -2.16,2.38 -1.202,1.055 -2.626,1.79 -1.4,0.736 -2.97,1.104 -1.546,0.393 -3.2,0.393 -2.773,0 -5.227,-1.03 -2.43,-1.03 -4.27,-2.87 -1.816,-1.84 -2.87,-4.368 -1.055,-2.552 -1.055,-5.595 0,-3.117 1.055,-5.693 1.055,-2.577 2.87,-4.393 1.84,-1.816 4.27,-2.822 2.454,-1.006 5.227,-1.006 1.644,0 3.215,0.393 1.57,0.393 2.97,1.13 1.423,0.736 2.65,1.816 1.227,1.055 2.16,2.38 z m 3.436,-13.816 q -0.466,-0.172 -0.933,-0.22 -0.442,-0.05 -0.933,-0.05 -1.374,0 -2.6,0.515 -1.202,0.49 -2.1,1.423 -0.883,0.933 -1.4,2.258 -0.515,1.3 -0.515,2.945 0,0.368 0.024,0.834 0.05,0.466 0.123,0.957 0.098,0.466 0.22,0.908 0.123,0.442 0.32,0.785 z" />
    <path
       id="F"
       d="m 342.798,154.36 q 0,2.945 -1.055,5.497 -1.055,2.528 -2.87,4.393 -1.816,1.84 -4.27,2.92 -2.43,1.055 -5.227,1.055 -2.773,0 -5.227,-1.055 -2.43,-1.08 -4.27,-2.92 -1.816,-1.865 -2.87,-4.393 -1.055,-2.552 -1.055,-5.497 0,-2.994 1.055,-5.546 1.055,-2.552 2.87,-4.393 1.84,-1.865 4.27,-2.92 2.454,-1.055 5.227,-1.055 2.798,0 5.227,1.006 2.454,0.982 4.27,2.822 1.816,1.816 2.87,4.393 1.055,2.552 1.055,5.693 z m -6.75,0 q 0,-1.62 -0.54,-2.92 -0.515,-1.325 -1.423,-2.258 -0.908,-0.957 -2.135,-1.448 -1.202,-0.515 -2.577,-0.515 -1.374,0 -2.6,0.515 -1.202,0.49 -2.1,1.448 -0.883,0.933 -1.4,2.258 -0.515,1.3 -0.515,2.92 0,1.52 0.515,2.822 0.515,1.3 1.4,2.258 0.908,0.957 2.1,1.52 1.227,0.54 2.6,0.54 1.374,0 2.577,-0.515 1.227,-0.515 2.135,-1.448 0.908,-0.933 1.423,-2.258 0.54,-1.325 0.54,-2.92 z" />
    <path
       id="G"
       d="m 388.545,167.736 h -7.018 v -11.02 q -2.33,-0.59 -4.295,-1.9 -1.94,-1.3 -3.337,-3.092 -1.4,-1.816 -2.184,-4 -0.76,-2.21 -0.76,-4.638 v -10.552 h 7.043 v 10.552 q 0,1.448 0.54,2.748 0.564,1.276 1.52,2.233 0.957,0.957 2.233,1.52 1.3,0.54 2.748,0.54 1.448,0 2.724,-0.54 1.3,-0.564 2.258,-1.52 0.957,-0.957 1.497,-2.233 0.564,-1.3 0.564,-2.748 v -10.552 h 7.018 v 10.552 q 0,2.43 -0.785,4.638 -0.76,2.184 -2.16,4 -1.4,1.79 -3.337,3.092 -1.94,1.3 -4.27,1.9 z" />
    <path
       id="H"
       d="m 444.41,164.668 q -0.8,0.736 -1.742,1.4 -0.908,0.638 -1.914,1.13 -1.006,0.466 -2.086,0.736 -1.055,0.294 -2.16,0.294 -2.43,0 -4.564,-0.86 -2.135,-0.86 -3.755,-2.43 -1.595,-1.595 -2.528,-3.853 -0.908,-2.282 -0.908,-5.104 v -14.528 h 6.675 v 14.528 q 0,1.325 0.393,2.38 0.417,1.03 1.104,1.742 0.687,0.712 1.595,1.08 0.933,0.368 1.988,0.368 1.03,0 1.94,-0.466 0.933,-0.49 1.62,-1.276 0.687,-0.785 1.08,-1.767 0.393,-1.006 0.393,-2.06 v -14.528 h 6.7 v 26.282 h -1.62 z" />
  </defs>
  <sodipodi:namedview
     pagecolor="#ffffff"
     bordercolor="#666666"
     borderopacity="1"
     objecttolerance="10"
     gridtolerance="10"
     guidetolerance="10"
     inkscape:pageopacity="0"
     inkscape:pageshadow="2"
     inkscape:window-width="1920"
     inkscape:window-height="1004"
     id="namedview12"
     showgrid="false"
     inkscape:zoom="1.9368038"
     inkscape:cx="198.33413"
     inkscape:cy="70.104173"
     inkscape:window-x="0"
     inkscape:window-y="0"
     inkscape:window-maximized="1"
     inkscape:current-layer="svg10"
     fit-margin-top="0"
     fit-margin-left="0"
     fit-margin-right="0"
     fit-margin-bottom="0"
     inkscape:document-rotation="0" />
  <g
     id="g2278"
     transform="matrix(0.60983041,0,0,0.60983041,1.2143508,1.8601451)">
    <path
       d="M 20.59192,22.427079 H 6.9334637 L 0.1044185,10.598262 6.9336447,-1.2298376 H 20.592101 L 27.42131,10.598623 Z"
       fill="#00222b"
       stroke="#aaeeff"
       stroke-opacity="0"
       id="path2"
       style="stroke-width:0.180859" />
    <path
       d="M 7.4630165,-0.31107763 4.6101518,4.6263394 7.4293774,6.2540554 9.3425012,2.9421894 h 3.8246198 v -3.25543703 z m 6.8956025,0 V 2.9443594 h 3.824622 l 1.913125,3.309696 2.819227,-1.627716 -2.852867,-4.94103703 z m 9.152904,5.97318703 -2.819227,1.627721 1.911676,3.3106026 -1.913122,3.313676 2.819225,1.627717 2.852856,-4.941033 z m -19.4973009,0 -2.8510563,4.9365136 2.8528648,4.941032 2.8190447,-1.627716 -1.913123,-3.313677 1.9116761,-3.3106026 z m 3.4147937,9.2821616 -2.8192257,1.627721 2.8512373,4.938319 H 13.164952 V 18.254874 H 9.3425012 Z m 12.6637332,0 -1.911678,3.310603 H 14.3588 v 3.255437 h 5.704288 l 2.851058,-4.938319 z"
       fill="#006680"
       id="path4"
       style="stroke-width:0.180859" />
    <path
       d="m 9.916909,3.9369094 -1.6277288,2.815954 2.4338158,1.405266 0.814769,-1.411052 h 1.627729 v -2.810532 z m 4.441891,0 v 2.810528 h 1.62773 l 0.814769,1.411053 2.433817,-1.405266 -1.62773,-2.815954 z M 7.6948781,7.7852004 6.072576,10.598262 7.700304,13.414216 10.134121,12.00895 9.3193515,10.597898 10.132312,9.1899234 Z m 12.1356269,0 -2.43382,1.405265 0.812962,1.4079746 -0.81477,1.411053 2.433819,1.405266 1.627729,-2.815958 z m -9.104073,5.2564506 -2.4338154,1.405262 1.6241114,2.813423 h 3.250032 v -2.810528 h -1.627729 z m 6.072878,0 -0.812961,1.407975 h -1.62773 v 2.810528 h 3.250032 l 1.624113,-2.813419 z"
       fill="#0088aa"
       id="path6"
       style="stroke-width:0.180859" />
    <path
       d="M 15.377758,13.395406 H 12.147982 L 10.532914,10.59844 12.147982,7.8014744 h 3.229776 l 1.61507,2.7969656 z"
       fill="#00aad4"
       id="path8"
       style="stroke-width:0.180859" />
  </g>
  <path
     d="m 25.274672,5.7879519 v 4.108214 h 2.053998 q 0.422289,0 0.794502,-0.157492 0.372213,-0.164753 0.650342,-0.44375 0.279106,-0.279105 0.436597,-0.650343 0.164753,-0.379366 0.164753,-0.801655 0,-0.422289 -0.164753,-0.794502 -0.157491,-0.379366 -0.436597,-0.658471 -0.279105,-0.279106 -0.650342,-0.436597 -0.372213,-0.164753 -0.794502,-0.164753 z m 0,8.2094901 H 23.220674 V 3.7328699 h 4.108213 q 0.565473,0 1.087915,0.150338 0.522441,0.143075 0.973345,0.415135 0.458058,0.264798 0.830271,0.644164 0.379366,0.372213 0.644164,0.830271 0.270976,0.458057 0.415135,0.980499 0.150338,0.522442 0.150338,1.087915 0,0.529595 -0.13603,1.029709 -0.130069,0.50098 -0.379366,0.951884 -0.243337,0.4509041 -0.601242,0.8302711 -0.357905,0.379366 -0.801656,0.658472 l 1.1381,2.683963 h -2.182983 l -0.894655,-2.068414 -2.297443,0.01431 z m 9.359729,-1.875371 q 0.114568,0.03577 0.229029,0.05008 0.114568,0.0072 0.229029,0.0072 0.28615,0 0.551056,-0.07869 0.264798,-0.07869 0.493827,-0.221875 0.236291,-0.150338 0.415135,-0.357906 0.186107,-0.214613 0.300567,-0.472365 l 1.431404,1.438558 q -0.270976,0.38652 -0.628665,0.69424 -0.350751,0.307829 -0.765778,0.522442 -0.407981,0.214613 -0.867123,0.321919 -0.450904,0.114569 -0.930423,0.114569 -0.80881,0 -1.524512,-0.300567 -0.708548,-0.300566 -1.246489,-0.837424 -0.529596,-0.536749 -0.837425,-1.274021 -0.307828,-0.744317 -0.307828,-1.631817 0,-0.9089621 0.307828,-1.6605411 0.307829,-0.751471 0.837425,-1.281175 0.536749,-0.529596 1.246489,-0.823117 0.715702,-0.293413 1.524512,-0.293413 0.479519,0 0.937577,0.114569 0.458057,0.114569 0.867123,0.329182 0.415135,0.214613 0.772823,0.529595 0.357906,0.307829 0.628665,0.694241 z m 1.001961,-4.0295221 q -0.13603,-0.05008 -0.270976,-0.06438 -0.130069,-0.01431 -0.270976,-0.01431 -0.400828,0 -0.758733,0.150337 -0.350752,0.143076 -0.615658,0.415135 -0.257644,0.270976 -0.407981,0.658472 -0.150338,0.379367 -0.150338,0.8588861 0,0.10839 0.0072,0.243336 0.01431,0.13603 0.03577,0.279106 0.02862,0.13603 0.06438,0.264797 0.03577,0.130069 0.093,0.229029 z"
     id="path12"
     style="fill:#1a1a1a;stroke-width:0.10839" />
  <path
     d="m 46.055173,10.096579 q 0,0.901809 -0.307829,1.646126 -0.307829,0.744317 -0.837424,1.281174 -0.529596,0.529596 -1.24649,0.823117 -0.708548,0.293413 -1.524511,0.293413 -0.808809,0 -1.524511,-0.300567 -0.708548,-0.300566 -1.24649,-0.837424 -0.529595,-0.536749 -0.837424,-1.274021 -0.307829,-0.744317 -0.307829,-1.631818 V 3.2829409 h 1.961108 v 3.57851 q 0.157491,-0.200522 0.379366,-0.357905 0.229029,-0.157492 0.487757,-0.257644 0.264798,-0.100153 0.543903,-0.150338 0.279106,-0.05723 0.543903,-0.05723 0.815963,0 1.524511,0.307829 0.715702,0.300566 1.24649,0.844578 0.529596,0.543903 0.837424,1.288328 0.307829,0.737055 0.307829,1.6175101 z m -1.96837,0 q 0,-0.4437501 -0.157491,-0.8231161 -0.150338,-0.386521 -0.415135,-0.665517 -0.264798,-0.279106 -0.622703,-0.436597 -0.350752,-0.157491 -0.751471,-0.157491 -0.400828,0 -0.758733,0.178844 -0.350751,0.171799 -0.615657,0.465212 -0.264798,0.28615 -0.415136,0.665517 -0.150337,0.372212 -0.150337,0.7728231 0,0.443751 0.150337,0.823117 0.150338,0.379366 0.415136,0.658472 0.264797,0.279105 0.615657,0.44375 0.357905,0.157491 0.758733,0.157491 0.400828,0 0.751471,-0.157491 0.357905,-0.164753 0.622703,-0.44375 0.264797,-0.279106 0.415135,-0.658472 0.157491,-0.379366 0.157491,-0.823117 z"
     id="path14"
     style="fill:#1a1a1a;stroke-width:0.10839" />
  <path
     d="m 53.632638,10.096579 q 0,0.858886 -0.307829,1.604178 -0.307828,0.737055 -0.837424,1.281175 -0.529595,0.536749 -1.24649,0.851732 -0.708548,0.307829 -1.524511,0.307829 -0.808809,0 -1.524511,-0.307829 -0.708548,-0.314874 -1.24649,-0.851732 -0.529595,-0.543903 -0.837424,-1.281175 -0.307829,-0.744316 -0.307829,-1.604178 0,-0.8731931 0.307829,-1.6175101 0.307829,-0.744317 0.837424,-1.281174 0.53675,-0.543903 1.24649,-0.851732 0.715702,-0.307829 1.524511,-0.307829 0.815963,0 1.524511,0.293413 0.715702,0.286151 1.24649,0.823117 0.529596,0.529595 0.837424,1.281174 0.307829,0.744317 0.307829,1.6605411 z m -1.96837,0 q 0,-0.4723651 -0.157491,-0.8517311 -0.150337,-0.386521 -0.415135,-0.658472 -0.264798,-0.279105 -0.622703,-0.422289 -0.350752,-0.150338 -0.751471,-0.150338 -0.400828,0 -0.758733,0.150338 -0.350751,0.143075 -0.615657,0.422289 -0.257644,0.270976 -0.407982,0.658472 -0.150337,0.379366 -0.150337,0.8517311 0,0.443751 0.150337,0.823117 0.150338,0.379367 0.407982,0.658472 0.264798,0.279105 0.615657,0.44375 0.357905,0.157492 0.758733,0.157492 0.400828,0 0.751471,-0.150338 0.357905,-0.150337 0.622703,-0.422289 0.264798,-0.270976 0.415135,-0.658472 0.157491,-0.38652 0.157491,-0.851732 z m 4.099326,3.900646 H 53.809748 V 6.3318549 h 0.472365 l 0.644165,0.908962 q 0.472365,-0.429443 1.073607,-0.658471 0.601241,-0.236292 1.246489,-0.236292 h 1.724925 v 1.946692 h -1.724925 q -0.307828,0 -0.579888,0.114569 -0.270976,0.114569 -0.472366,0.314874 -0.200522,0.200522 -0.314874,0.472365 -0.114568,0.270976 -0.114568,0.579889 z"
     id="path16"
     style="fill:#1a1a1a;stroke-width:0.10839" />
  <path
     d="M 60.915823,13.997225 H 58.961869 V 6.3318549 h 0.472366 l 0.644164,0.744317 c 0.31491,-0.2862953 0.670431,-0.5057857 1.066562,-0.658471 0.400827,-0.157528 0.818347,-0.236292 1.252559,-0.236292 0.467524,0 0.90889,0.090325 1.324098,0.270976 0.415135,0.176532 0.777773,0.422217 1.087914,0.737055 0.310141,0.3101413 0.553478,0.6751643 0.730009,1.095069 0.180651,0.4151347 0.270976,0.858885 0.270976,1.331251 V 13.994732 H 63.856455 V 9.6157599 c 0,-0.200378 -0.03819,-0.388869 -0.114568,-0.565473 -0.07638,-0.1806507 -0.181338,-0.338106 -0.314875,-0.472366 -0.133681,-0.1336813 -0.288752,-0.2386393 -0.465211,-0.314874 -0.176532,-0.076379 -0.365023,-0.114568 -0.565473,-0.114568 -0.205219,0 -0.398516,0.038189 -0.579889,0.114568 -0.180651,0.076379 -0.338106,0.1813373 -0.472365,0.314874 -0.133681,0.133682 -0.238639,0.2911373 -0.314874,0.472366 -0.07638,0.176532 -0.114569,0.365023 -0.114569,0.565473 z M 77.610795,8.9085119 c 0,0.4866733 -0.06442,0.9566544 -0.19327,1.4099431 -0.124067,0.448519 -0.300597,0.870808 -0.52959,1.266867 -0.229067,0.391289 -0.505823,0.749158 -0.83027,1.073607 -0.325173,0.325171 -0.683043,0.604313 -1.07361,0.837424 -0.391287,0.229065 -0.813577,0.405597 -1.26687,0.529596 -0.453287,0.12884 -0.923267,0.19326 -1.40994,0.19326 -0.486673,0 -0.956653,-0.06442 -1.40994,-0.19326 -0.448519,-0.124071 -0.870808,-0.300603 -1.266867,-0.529596 -0.391289,-0.233834 -0.749158,-0.512975 -1.073607,-0.837424 -0.325171,-0.325171 -0.604313,-0.68304 -0.837425,-1.073607 -0.229065,-0.395987 -0.407981,-0.818276 -0.536749,-1.266867 -0.124071,-0.4532887 -0.186106,-0.9232698 -0.186106,-1.4099431 0,-0.4866727 0.06203,-0.9566533 0.186106,-1.409942 0.12884,-0.4532887 0.307756,-0.8755777 0.536749,-1.266867 0.233835,-0.3912893 0.512976,-0.7491583 0.837425,-1.073607 0.325171,-0.3251713 0.68304,-0.6019283 1.073607,-0.830271 0.395986,-0.2290653 0.818275,-0.4055973 1.266867,-0.529596 0.453287,-0.12884 0.923267,-0.19326 1.40994,-0.19326 0.486673,0 0.956653,0.06442 1.40994,0.19326 0.453293,0.1240713 0.875583,0.3006033 1.26687,0.529596 0.391293,0.2290653 0.749163,0.5058223 1.07361,0.830271 0.325173,0.3251707 0.60193,0.6830397 0.83027,1.073607 0.229067,0.3912893 0.405597,0.8135783 0.52959,1.266867 0.128847,0.4532887 0.19327,0.9232693 0.19327,1.409942 z m -2.03991,0 c 0,-0.4485193 -0.08588,-0.8708083 -0.25765,-1.266867 -0.17176,-0.400828 -0.40552,-0.746774 -0.70128,-1.037838 -0.291067,-0.2958333 -0.637013,-0.5295953 -1.03784,-0.701286 -0.395987,-0.1717627 -0.818277,-0.257644 -1.26687,-0.257644 -0.453287,0 -0.87796,0.085881 -1.27402,0.257644 -0.395985,0.1717627 -0.741931,0.4055247 -1.037837,0.701286 -0.295833,0.291064 -0.529595,0.63701 -0.701286,1.037838 -0.171763,0.395986 -0.257644,0.818275 -0.257644,1.266867 0,0.4485193 0.08588,0.8708084 0.257644,1.2668671 0.171763,0.391289 0.405525,0.734526 0.701286,1.029709 0.295834,0.295833 0.64178,0.529595 1.037837,0.701286 0.395987,0.171763 0.82066,0.257644 1.27402,0.257644 0.44852,0 0.87081,-0.08588 1.26687,-0.257644 0.400827,-0.171763 0.746773,-0.405525 1.03784,-0.701286 0.295833,-0.295833 0.529593,-0.63907 0.70128,-1.029709 0.171767,-0.3959861 0.25765,-0.8182751 0.25765,-1.2668671 z m 1.85889,-2.097138 c 0,-0.4246733 0.08111,-0.8230803 0.24334,-1.195221 0.162227,-0.37214 0.381717,-0.6965883 0.65847,-0.973345 0.281527,-0.281526 0.60836,-0.5033653 0.9805,-0.665518 0.37214,-0.162224 0.770547,-0.243336 1.19522,-0.243336 h 4.70957 v 2.053998 h -4.70957 c -0.143073,0 -0.276683,0.02623 -0.40083,0.07869 -0.124067,0.05246 -0.233793,0.1264183 -0.32918,0.221875 -0.09069,0.090687 -0.162223,0.197993 -0.21461,0.321919 -0.05247,0.1240713 -0.0787,0.2576807 -0.0787,0.400828 0,0.1430753 0.02623,0.2790693 0.0787,0.407982 0.05247,0.1240707 0.124003,0.2337977 0.21461,0.329181 0.09539,0.090687 0.205113,0.1622243 0.32918,0.214613 0.124073,0.05246 0.257683,0.07869 0.40083,0.07869 h 2.054 c 0.424673,0 0.82308,0.081112 1.19522,0.243336 0.37698,0.1575273 0.703813,0.377018 0.9805,0.658472 0.281527,0.2767567 0.501017,0.60359 0.65847,0.9805 0.162227,0.3721401 0.24334,0.7705471 0.24334,1.1952211 0,0.424673 -0.08111,0.82308 -0.24334,1.195221 -0.157527,0.37214 -0.377017,0.698973 -0.65847,0.980499 -0.276753,0.276757 -0.603587,0.496248 -0.9805,0.658472 -0.37214,0.162225 -0.770547,0.243337 -1.19522,0.243337 h -4.55923 v -2.053999 h 4.55912 c 0.143073,0 0.276683,-0.02623 0.40083,-0.07869 0.124073,-0.05246 0.23138,-0.123998 0.32192,-0.214613 0.09538,-0.09538 0.169337,-0.205111 0.22187,-0.329182 0.05247,-0.124071 0.0787,-0.25768 0.0787,-0.400828 0,-0.143075 -0.02623,-0.276684 -0.0787,-0.400827 -0.05247,-0.124071 -0.126423,-0.231378 -0.22187,-0.32192 -0.09069,-0.09538 -0.197993,-0.169342 -0.32192,-0.2218751 -0.124073,-0.05246 -0.257683,-0.07869 -0.40083,-0.07869 h -2.054 c -0.424673,0 -0.82308,-0.081112 -1.19522,-0.243337 -0.37214,-0.162224 -0.698973,-0.3817147 -0.9805,-0.658472 -0.276753,-0.281526 -0.496243,-0.608359 -0.65847,-0.980499 -0.162227,-0.376982 -0.24334,-0.7777737 -0.24334,-1.202375 z"
     id="path18"
     style="fill:#1a1a1a;stroke-width:0.10839"
     sodipodi:nodetypes="ccccccscccsccscccscccccsccsccsccsccsccsccsccsccsscccscccscccscccscsscsccscccscccsscccscccsccscccscccssscccc" />
  <g
     id="g2426"
     transform="translate(0.70714641,1.142349)">
    <use
       xlink:href="#B"
       id="use20"
       x="0"
       y="0"
       width="100%"
       height="100%"
       style="fill:#1a1a1a"
       transform="matrix(0.10839041,0,0,0.10839041,73.377365,-11.825649)" />
    <use
       xlink:href="#C"
       id="use22"
       x="0"
       y="0"
       width="100%"
       height="100%"
       style="fill:#1a1a1a"
       transform="matrix(0.10839041,0,0,0.10839041,73.377365,-11.825649)" />
    <use
       xlink:href="#D"
       id="use24"
       x="0"
       y="0"
       width="100%"
       height="100%"
       style="fill:#1a1a1a"
       transform="matrix(0.10839041,0,0,0.10839041,73.377365,-11.825649)" />
    <use
       xlink:href="#E"
       id="use26"
       x="0"
       y="0"
       width="100%"
       height="100%"
       style="fill:#1a1a1a"
       transform="matrix(0.10839041,0,0,0.10839041,73.377365,-11.825649)" />
    <path
       d="m 106.93265,6.3553251 h -0.72621 v -2.125319 h -0.35379 v -0.723506 h 0.35379 v -0.135705 q 0,-0.263389 0.0984,-0.494694 0.10112,-0.231413 0.27401,-0.401695 0.17559,-0.172883 0.407,-0.271301 0.23142,-0.101128 0.4947,-0.101128 h 0.5452 v 0.723506 h -0.5452 q -0.11707,0 -0.21809,0.0426 -0.0984,0.03989 -0.17288,0.114352 -0.0719,0.07186 -0.11435,0.172883 -0.0426,0.09842 -0.0426,0.21548 v 0.135705 h 0.89097 v 0.723506 h -0.89097 z"
       id="path28"
       style="fill:#1a1a1a;stroke-width:0.10839" />
    <use
       xlink:href="#F"
       id="use30"
       x="0"
       y="0"
       width="100%"
       height="100%"
       style="fill:#1a1a1a"
       transform="matrix(0.10839041,0,0,0.10839041,73.377365,-11.825649)" />
    <path
       d="m 111.33059,6.3553251 h -0.72621 v -2.848717 h 0.17559 l 0.23954,0.337853 q 0.17559,-0.159551 0.39888,-0.244746 0.22328,-0.08671 0.46283,-0.08671 h 0.64102 v 0.723506 h -0.64102 q -0.11436,0 -0.21549,0.0426 -0.10112,0.0426 -0.17559,0.117061 -0.0745,0.07446 -0.11706,0.175593 -0.0426,0.101128 -0.0426,0.21548 z"
       id="path32"
       style="fill:#1a1a1a;stroke-width:0.10839" />
    <use
       xlink:href="#G"
       id="use34"
       x="0"
       y="0"
       width="100%"
       height="100%"
       style="fill:#1a1a1a"
       transform="matrix(0.10839041,0,0,0.10839041,73.377365,-11.825649)" />
    <use
       xlink:href="#F"
       x="81.692001"
       id="use36"
       y="0"
       width="100%"
       height="100%"
       style="fill:#1a1a1a"
       transform="matrix(0.10839041,0,0,0.10839041,73.377365,-11.825649)" />
    <use
       xlink:href="#H"
       id="use38"
       x="0"
       y="0"
       width="100%"
       height="100%"
       style="fill:#1a1a1a"
       transform="matrix(0.10839041,0,0,0.10839041,73.377365,-11.825649)" />
  </g>
  <g
     id="g2414">
    <g
       id="g2401"
       transform="translate(5.4428954,-26.047476)">
      <use
         xlink:href="#B"
         x="330.69699"
         id="use42"
         y="0"
         width="100%"
         height="100%"
         style="fill:#1a1a1a"
         transform="matrix(0.10839041,0,0,0.10839041,31.216493,22.046598)" />
      <use
         xlink:href="#C"
         x="330.69699"
         id="use44"
         y="0"
         width="100%"
         height="100%"
         style="fill:#1a1a1a"
         transform="matrix(0.10839041,0,0,0.10839041,31.216493,22.046598)" />
      <use
         xlink:href="#D"
         x="330.69601"
         id="use46"
         y="0"
         width="100%"
         height="100%"
         style="fill:#1a1a1a"
         transform="matrix(0.10839041,0,0,0.10839041,31.216493,22.046598)" />
      <use
         xlink:href="#E"
         x="330.69699"
         id="use48"
         y="0"
         width="100%"
         height="100%"
         style="fill:#1a1a1a"
         transform="matrix(0.10839041,0,0,0.10839041,31.216493,22.046598)" />
    </g>
    <g
       id="g2395"
       transform="translate(9.6752738,-26.047476)">
      <use
         xlink:href="#G"
         x="322.655"
         id="use52"
         y="0"
         width="100%"
         height="100%"
         style="fill:#1a1a1a"
         transform="matrix(0.10839041,0,0,0.10839041,31.216493,22.046598)" />
      <use
         xlink:href="#F"
         x="404.34601"
         id="use54"
         y="0"
         width="100%"
         height="100%"
         style="fill:#1a1a1a"
         transform="matrix(0.10839041,0,0,0.10839041,31.216493,22.046598)" />
      <use
         xlink:href="#H"
         x="322.65302"
         id="use56"
         y="0"
         width="100%"
         height="100%"
         style="fill:#1a1a1a"
         transform="matrix(0.10839041,0,0,0.10839041,31.216493,22.046598)" />
    </g>
    <text
       xml:space="preserve"
       style="font-style:normal;font-weight:normal;font-size:5.45026px;line-height:1.25;font-family:sans-serif;letter-spacing:0px;word-spacing:0px;fill:#000000;fill-opacity:1;stroke:none;stroke-width:0.136257"
       x="104.64433"
       y="14.180914"
       id="text2386"><tspan
         sodipodi:role="line"
         id="tspan2384"
         x="104.64433"
         y="14.180914"
         style="font-style:normal;font-variant:normal;font-weight:normal;font-stretch:normal;font-size:5.45026px;font-family:Righteous;-inkscape-font-specification:'Righteous, Normal';font-variant-ligatures:normal;font-variant-caps:normal;font-variant-numeric:normal;font-variant-east-asian:normal;stroke-width:0.136257">with</tspan></text>
  </g>
</svg>
