<?xml version="1.0" encoding="UTF-8" standalone="no"?>
<svg
   xmlns:dc="http://purl.org/dc/elements/1.1/"
   xmlns:cc="http://creativecommons.org/ns#"
   xmlns:rdf="http://www.w3.org/1999/02/22-rdf-syntax-ns#"
   xmlns:svg="http://www.w3.org/2000/svg"
   xmlns="http://www.w3.org/2000/svg"
   xmlns:sodipodi="http://sodipodi.sourceforge.net/DTD/sodipodi-0.dtd"
   xmlns:inkscape="http://www.inkscape.org/namespaces/inkscape"
   width="256"
   height="256"
   viewBox="0 0 67.730546 67.633417"
   version="1.1"
   id="svg12"
   sodipodi:docname="rebornos_logo.svg"
   inkscape:version="1.0.2 (e86c870879, 2021-01-15)"
   inkscape:export-filename="/run/media/shivanandvp/DATA/Development/RebornOS/rebornos-calamares-installer/src/branding/default/rebornos_logo.png"
   inkscape:export-xdpi="96"
   inkscape:export-ydpi="96">
  <metadata
     id="metadata18">
    <rdf:RDF>
      <cc:Work
         rdf:about="">
        <dc:format>image/svg+xml</dc:format>
        <dc:type
           rdf:resource="http://purl.org/dc/dcmitype/StillImage" />
        <dc:title />
      </cc:Work>
    </rdf:RDF>
  </metadata>
  <defs
     id="defs16" />
  <sodipodi:namedview
     pagecolor="#ffffff"
     bordercolor="#666666"
     borderopacity="1"
     objecttolerance="10"
     gridtolerance="10"
     guidetolerance="10"
     inkscape:pageopacity="0"
     inkscape:pageshadow="2"
     inkscape:window-width="1920"
     inkscape:window-height="1004"
     id="namedview14"
     showgrid="false"
     inkscape:zoom="1.97803"
     inkscape:cx="96.942936"
     inkscape:cy="104.57429"
     inkscape:window-x="0"
     inkscape:window-y="0"
     inkscape:window-maximized="1"
     inkscape:current-layer="svg12"
     inkscape:document-rotation="0"
     fit-margin-top="0"
     fit-margin-left="0"
     fit-margin-right="0"
     fit-margin-bottom="0" />
  <path
     d="M 46.627051,56.171308 H 21.034247 L 8.2378444,34.00773 21.034247,11.845896 h 25.592804 l 12.796406,22.162881 z"
     fill="#1a1a1a"
     stroke="#cccccc"
     stroke-width="0.523014"
     id="path4" />
  <path
     d="m 22.026578,13.563473 -5.345897,9.254554 5.282438,3.049866 3.584386,-6.205383 h 7.166334 v -6.099735 z m 12.920878,0 v 6.099734 h 7.166333 l 3.584389,6.208173 5.28244,-3.049867 -5.345203,-9.25804 z m 17.15032,11.191796 -5.28244,3.049867 3.581944,6.206431 -3.584385,6.208869 5.282439,3.049867 5.345202,-9.25804 z m -36.533556,0 -5.342062,9.249672 5.345201,9.258042 5.282438,-3.049868 -3.584387,-6.208871 3.581946,-6.20643 z m 6.401688,17.398924 -5.28174,3.046728 5.34241,9.252808 h 10.687958 v -6.099731 h -7.165288 z m 23.728785,0 -3.581948,6.206429 h -7.16494 v 6.099731 h 10.688658 l 5.341713,-9.252806 z"
     fill="#277748"
     id="path6"
     style="fill:#006680;fill-opacity:1;stroke-width:0.348677" />
  <path
     d="m 26.624915,21.525834 -3.049868,5.276162 4.56068,2.633199 1.5272,-2.644009 h 3.049867 v -5.265352 z m 8.32289,0 v 5.266051 h 3.049867 l 1.5272,2.644009 4.560682,-2.6332 -3.04987,-5.276163 z m -12.486777,7.210616 -3.043242,5.27128 3.049866,5.276164 4.560681,-2.633201 -1.5272,-2.644007 1.523712,-2.638083 z m 22.739242,0 -4.560682,2.633198 1.523713,2.638082 -1.527199,2.644008 4.560681,2.633202 3.049869,-5.276163 z m -17.058616,9.849394 -4.56068,2.6332 3.043243,5.271977 h 6.089972 v -5.266748 h -3.049868 z m 11.379034,0 -1.523712,2.638081 h -3.049171 v 5.266052 h 6.089971 l 3.043244,-5.271979 z"
     fill="#649f4b"
     id="path8"
     style="fill:#0086a8;fill-opacity:1;stroke-width:0.348677" />
  <path
     d="m 36.857155,39.249026 h -6.051617 l -3.026507,-5.240598 3.026507,-5.240597 h 6.051965 l 3.026506,5.240597 z"
     fill="#656565"
     id="path10"
     style="fill:#00acd6;fill-opacity:1;stroke-width:0.348677" />
</svg>
